<svg xmlns="http://www.w3.org/2000/svg" viewBox="0 0 949.95 949.95"><defs><style>.cls-1{fill:#05cecb23;}</style></defs><title>Asset 25</title><g id="Layer_2" data-name="Layer 2"><g id="Call"><g id="telephone-circle-7"><path class="cls-1" d="M621.16,237.49c-128,0-239.88,112-239.88,112-8.78,8.78-23.08,23.15-32,31.9,0,0-111.82,111.89-111.82,239.81,0,77,49.56,107.47,89.24,119.67A187.54,187.54,0,0,0,374.79,749c12.35,0,25.8-9.63,29.69-21.44l33.68-101a20.61,20.61,0,0,0-14.77-26.9,339.4,339.4,0,0,1-37.61-12.38c-26.83-10.74-52.42-62.08,43.49-158S576.6,359,587.3,385.81a330.58,330.58,0,0,1,12.38,37.61,20.53,20.53,0,0,0,26.87,14.74l101-33.61c11.78-4,21.44-17.34,21.44-29.76a186,186,0,0,0-8.17-48C728.59,287.19,698.12,237.49,621.16,237.49Z"/><path class="cls-1" d="M475,0C212.65,0,0,212.65,0,475S212.65,950,475,950,950,737.3,950,475,737.3,0,475,0Zm0,913.42C233.24,913.42,36.54,716.75,36.54,475S233.21,36.54,475,36.54,913.42,233.21,913.42,475,716.75,913.42,475,913.42Z"/></g></g></g></svg>