<svg xmlns="http://www.w3.org/2000/svg" viewBox="0 0 820.55 948.45"><defs><style>.cls-1{fill:#05cecb23;}</style></defs><title>Asset 26</title><g id="Layer_2" data-name="Layer 2"><g id="Visit"><g id="globe-ball-7"><path class="cls-1" d="M778.19,687.22,752.4,661.43C588.85,825,322.7,825,159.12,661.43s-163.55-429.73,0-593.28L133.32,42.36c-177.76,177.77-177.76,467.07,0,644.87C213,766.84,315,810.52,419.28,818.82V912H309.84v36.48H601.67V912H492.23V818.82C596.58,810.52,698.57,766.84,778.19,687.22Z"/><path class="cls-1" d="M455.76,0C254.3,0,91,163.37,91,364.79S254.3,729.58,455.76,729.58,820.55,566.21,820.55,364.79,657.21,0,455.76,0Zm0,693.1c-181,0-328.31-147.27-328.31-328.31S274.75,36.48,455.76,36.48,784.07,183.75,784.07,364.79,636.76,693.1,455.76,693.1Z"/></g></g></g></svg>